<?xml version="1.0" encoding="UTF-8"?>
<svg version="1.1" xmlns="http://www.w3.org/2000/svg" width="1228" height="422">
<path d="M0 0 C19.81009872 -0.30390006 39.61972356 -0.53302911 59.43167114 -0.67355824 C68.63118479 -0.74054847 77.82924895 -0.83184477 87.02783203 -0.98071289 C95.0469812 -1.11043123 103.06508072 -1.19418837 111.0852499 -1.22315043 C115.33121656 -1.24007848 119.57418099 -1.27974112 123.81918335 -1.37449074 C127.81914008 -1.46304377 131.81487385 -1.48989897 135.8157177 -1.47039986 C137.28001861 -1.47396369 138.74446698 -1.49966623 140.20791817 -1.54967117 C144.75867856 -1.69748128 148.71102 -1.58994169 153 0 C156.67688422 3.96119808 158.72933925 8.08770003 161 13 C162.18317721 15.11452499 163.38013636 17.22146721 164.59765625 19.31640625 C165.75547538 21.39684219 166.91043711 23.47887097 168.0625 25.5625 C169.21894772 27.64774826 170.37649802 29.73238543 171.53515625 31.81640625 C172.37844482 33.33451904 172.37844482 33.33451904 173.23876953 34.88330078 C175.66071526 39.1692114 178.17960586 43.3959042 180.71264648 47.61694336 C182 50 182 50 182 52 C131.84 52 81.68 52 30 52 C24.72 61.24 19.44 70.48 14 80 C10 87 6 94 2 101 C-1.78877279 99.73707574 -2.03289649 98.65511028 -3.8984375 95.20703125 C-4.4545874 94.19415039 -5.0107373 93.18126953 -5.58374023 92.13769531 C-6.17485596 91.04038086 -6.76597168 89.94306641 -7.375 88.8125 C-8.62091853 86.53103205 -9.86967995 84.25111461 -11.12109375 81.97265625 C-11.43907425 81.3926889 -11.75705475 80.81272156 -12.08467102 80.21517944 C-14.24858931 76.29220697 -16.51274802 72.44440877 -18.84765625 68.62109375 C-19.45109863 67.63069092 -20.05454102 66.64028809 -20.67626953 65.61987305 C-21.8311834 63.73797499 -22.99718321 61.86282585 -24.17529297 59.99536133 C-24.69365723 59.14611084 -25.21202148 58.29686035 -25.74609375 57.421875 C-26.20685303 56.68549805 -26.6676123 55.94912109 -27.14233398 55.19042969 C-28.25761499 52.34206614 -27.90319233 50.89637614 -27 48 C-26.00708008 45.79370117 -26.00708008 45.79370117 -24.76953125 43.54296875 C-24.30264893 42.68864258 -23.8357666 41.83431641 -23.35473633 40.95410156 C-22.59132935 39.58463379 -22.59132935 39.58463379 -21.8125 38.1875 C-21.28873779 37.23713867 -20.76497559 36.28677734 -20.2253418 35.30761719 C-14.39736362 24.79654922 -8.31947471 14.42927487 -2.20825195 4.08105469 C-1.43163272 2.74343046 -0.69171902 1.38343804 0 0 Z " fill="#F41A2C" transform="translate(42,213)"/>
<path d="M0 0 C3.46384114 1.15461371 3.59551179 1.55137451 5.20703125 4.62890625 C5.62114258 5.40371338 6.03525391 6.17852051 6.46191406 6.97680664 C6.90760742 7.83008545 7.35330078 8.68336426 7.8125 9.5625 C8.80051786 11.40778824 9.79153334 13.25147383 10.78515625 15.09375 C11.57043701 16.54974609 11.57043701 16.54974609 12.37158203 18.03515625 C15.06371409 22.93669325 17.90895372 27.74625392 20.75 32.5625 C25.79430242 41.14038172 30.69314951 49.78692218 35.5 58.5 C40.79627778 68.09783707 46.22680853 77.60192991 51.78320312 87.05126953 C56.71165028 95.45228601 61.48370155 103.9359147 66.20727539 112.45361328 C66.74731201 113.42540527 67.28734863 114.39719727 67.84375 115.3984375 C68.30974609 116.24067871 68.77574219 117.08291992 69.25585938 117.95068359 C69.83142578 118.95695801 70.40699219 119.96323242 71 121 C71.52758408 122.2538298 71.52758408 122.2538298 72.06582642 123.5329895 C73.46199646 126.47408116 74.72991639 128.65685958 77 131 C81.41578006 132.44909019 85.65985283 132.30616526 90.2734375 132.1953125 C91.55231842 132.20335907 92.83119934 132.21140564 94.14883423 132.21969604 C97.53432936 132.23213331 100.91384845 132.20171263 104.29858398 132.15020752 C107.75768608 132.1082143 111.21650703 132.12296219 114.67578125 132.1328125 C121.4514664 132.14063859 128.22497345 132.09192281 135 132 C130.67392041 140.87367283 126.10895958 149.50787005 121.0625 158 C119.90685487 159.95792198 118.7519139 161.91625974 117.59765625 163.875 C117.02418457 164.84695312 116.45071289 165.81890625 115.85986328 166.8203125 C112.52610382 172.51982461 109.26408715 178.26038585 106 184 C98.68370654 184.5605998 91.37212584 184.98449119 84.03858757 185.24349213 C80.63007772 185.36798403 77.23638153 185.53571127 73.83642578 185.81054688 C55.84186326 187.15865218 55.84186326 187.15865218 48 184 C41.59609727 178.40121708 38.35772024 170.60156276 35.19342041 162.8684082 C33.74181514 159.37944786 31.99695151 156.27358047 30.0625 153.03125 C29.03988285 151.18848878 28.01899021 149.34476928 27 147.5 C22.42684114 139.27661004 17.76425834 131.11412749 13 123 C7.63401878 113.86106324 2.42002792 104.6469893 -2.73242188 95.38623047 C-7.44672844 86.93468256 -12.29354536 78.5657005 -17.20703125 70.22851562 C-18.81618035 67.49219407 -20.40947548 64.74718059 -22 62 C-22.58523437 61.0109668 -23.17046875 60.02193359 -23.7734375 59.00292969 C-24.33289063 58.03000977 -24.89234375 57.05708984 -25.46875 56.0546875 C-26.23348633 54.74346924 -26.23348633 54.74346924 -27.01367188 53.40576172 C-28.16999516 50.5853633 -28.150862 49.77633375 -27 47 C-26.06116444 45.11139784 -25.06829437 43.24932832 -24.04296875 41.40625 C-23.4301001 40.30192627 -22.81723145 39.19760254 -22.18579102 38.05981445 C-21.52001619 36.87302884 -20.85391264 35.68642758 -20.1875 34.5 C-19.5116142 33.28931958 -18.83575174 32.07862612 -18.15991211 30.86791992 C-12.32441331 20.44785125 -6.24551953 10.17964945 0 0 Z " fill="#14235E" transform="translate(270,81)"/>
<path d="M0 0 C0.66 0 1.32 0 2 0 C2.3810791 0.69222656 2.7621582 1.38445312 3.15478516 2.09765625 C10.55117222 15.51590013 18.03211875 28.86673254 25.79736328 42.07617188 C29.95669651 49.16772401 34.00256043 56.31608255 38 63.5 C42.57566436 71.72202653 47.23571607 79.88580814 52 88 C58.65811568 99.33986784 65.09859437 110.79538914 71.48291016 122.29125977 C73.30180406 125.53886644 75.1532349 128.76816108 77 132 C96.14 132 115.28 132 135 132 C132.77723086 137.55692286 130.0115171 142.59558793 127.09960938 147.81420898 C126.15810722 149.50311102 125.2234571 151.1958272 124.2890625 152.88867188 C123.32309328 154.62563496 122.35536103 156.36233497 121.33569336 158.06832886 C119.16090247 161.7318623 117.4341701 165.3482146 115.87890625 169.31884766 C113.440455 174.99702006 111.0069142 180.1808887 106 184 C97.01261035 187.03687072 87.15902194 185.98678714 77.8258667 185.37329102 C74.34859596 185.16676704 70.86838286 185.07696939 67.38671875 184.9765625 C60.5839573 184.76352625 53.79283253 184.42341189 47 184 C46.67248749 183.39541458 46.34497498 182.79082916 46.00753784 182.16792297 C37.27474418 166.06007504 37.27474418 166.06007504 28.125 150.1875 C23.31318929 142.01386619 18.61087215 133.78860696 14 125.5 C8.86881979 116.27948541 3.60832989 107.14507975 -1.73461914 98.04589844 C-6.64173008 89.66679455 -11.40396622 81.21106546 -16.11914062 72.72265625 C-16.65603516 71.75714844 -17.19292969 70.79164063 -17.74609375 69.796875 C-18.26929199 68.85005859 -18.79249023 67.90324219 -19.33154297 66.92773438 C-20.51377996 64.85319736 -21.74172467 62.80440573 -23.00048828 60.77539062 C-23.65130371 59.72029297 -24.30211914 58.66519531 -24.97265625 57.578125 C-25.574729 56.6284082 -26.17680176 55.67869141 -26.79711914 54.70019531 C-28.23235699 51.47841114 -28.14220715 50.29469085 -27 47 C-25.80761719 44.48657227 -25.80761719 44.48657227 -24.296875 41.81640625 C-23.73452148 40.81601318 -23.17216797 39.81562012 -22.59277344 38.78491211 C-21.9846582 37.72151611 -21.37654297 36.65812012 -20.75 35.5625 C-20.12899414 34.46752197 -19.50798828 33.37254395 -18.86816406 32.24438477 C-16.92178755 28.82395048 -14.96260362 25.41114556 -13 22 C-12.37222656 20.90397461 -11.74445313 19.80794922 -11.09765625 18.67871094 C-9.32537871 15.59221278 -7.54079042 12.51328701 -5.75 9.4375 C-5.20182617 8.48625244 -4.65365234 7.53500488 -4.08886719 6.55493164 C-3.58000977 5.68989014 -3.07115234 4.82484863 -2.546875 3.93359375 C-2.10182617 3.17103271 -1.65677734 2.40847168 -1.19824219 1.62280273 C-0.80282227 1.08727783 -0.40740234 0.55175293 0 0 Z " fill="#F41A2C" transform="translate(232,147)"/>
<path d="M0 0 C19.47 0 38.94 0 59 0 C62.403125 6.1565625 62.403125 6.1565625 65.875 12.4375 C75.34441502 29.87110892 75.34441502 29.87110892 85.828125 46.6953125 C87 49 87 49 86.73999023 50.83056641 C85.85788951 53.41662614 84.67381372 55.6338458 83.33203125 58.015625 C82.77580078 59.00691406 82.21957031 59.99820313 81.64648438 61.01953125 C81.04126953 62.08558594 80.43605469 63.15164062 79.8125 64.25 C79.18537109 65.36246094 78.55824219 66.47492188 77.91210938 67.62109375 C73.10589804 76.11958931 68.19597155 84.55590479 63.25317383 92.97558594 C59.07919426 100.10175075 55.01599087 107.2837664 51 114.5 C45.87023595 123.71754477 40.61283308 132.84997626 35.26977539 141.9453125 C30.29358887 150.4394983 25.47356878 159.0165928 20.70507812 167.62890625 C20.16173828 168.60730469 19.61839844 169.58570313 19.05859375 170.59375 C18.58736084 171.44646484 18.11612793 172.29917969 17.63061523 173.17773438 C17.09251221 174.10908203 16.55440918 175.04042969 16 176 C15.72280624 176.68936646 15.44561249 177.37873291 15.16001892 178.08898926 C14.0054084 180.56076195 13.03028103 182.16352139 11 184 C6.60991477 185.13405777 2.33212533 184.93101009 -2.17578125 184.78125 C-4.09622505 184.76427063 -4.09622505 184.76427063 -6.0554657 184.74694824 C-9.44823697 184.71650039 -12.8382379 184.63801654 -16.22991943 184.54931641 C-19.69521604 184.46725669 -23.16096356 184.43089482 -26.62695312 184.390625 C-33.41916677 184.30244508 -40.20933237 184.16859707 -47 184 C-45.70803074 179.75540641 -44.08904687 176.10956143 -41.8671875 172.2734375 C-41.23425781 171.17386719 -40.60132813 170.07429687 -39.94921875 168.94140625 C-39.25785576 167.75257901 -38.56644827 166.56377765 -37.875 165.375 C-37.15437198 164.12663437 -36.43433046 162.87793002 -35.71484375 161.62890625 C-34.22069053 159.03611824 -32.72403245 156.44480118 -31.22558594 153.85449219 C-27.79338022 147.91652691 -24.39869229 141.95719212 -21 136 C-19.66706242 133.66644045 -18.33353021 131.33322092 -17 129 C-16.33332238 127.83333959 -15.66665571 126.66667293 -15 125.5 C-4.90625 107.8359375 5.1875 90.171875 15.28125 72.5078125 C15.879375 71.45239258 16.4775 70.39697266 17.09375 69.30957031 C18.46250932 66.93317413 19.85370706 64.58541788 21.28125 62.24511719 C21.84434875 61.30537552 21.84434875 61.30537552 22.41882324 60.34664917 C23.47348673 58.58848128 24.54201911 56.83865465 25.61132812 55.08935547 C27.16888243 51.62429003 27.28665885 50.50726859 26 47 C25.15320864 45.22736745 24.23312955 43.48877535 23.26171875 41.78125 C22.4102124 40.27304688 22.4102124 40.27304688 21.54150391 38.734375 C20.92968262 37.66703125 20.31786133 36.5996875 19.6875 35.5 C19.06536621 34.40171875 18.44323242 33.3034375 17.80224609 32.171875 C15.87624953 28.77656652 13.94002998 25.3873071 12 22 C11.39397949 20.94167969 10.78795898 19.88335937 10.16357422 18.79296875 C9.29176514 17.27123047 9.29176514 17.27123047 8.40234375 15.71875 C7.84909424 14.75259766 7.29584473 13.78644531 6.72583008 12.79101562 C5.67258759 10.95470815 4.61651075 9.12002296 3.55737305 7.28710938 C3.08726807 6.47048828 2.61716309 5.65386719 2.1328125 4.8125 C1.71918457 4.09707031 1.30555664 3.38164062 0.87939453 2.64453125 C0 1 0 1 0 0 Z " fill="#14235E" transform="translate(99,14)"/>
<path d="M0 0 C19.47 0 38.94 0 59 0 C62.403125 6.1565625 62.403125 6.1565625 65.875 12.4375 C75.17334087 29.94642237 75.17334087 29.94642237 85.890625 46.5703125 C87 49 87 49 86.26513672 51.79394531 C85.01394675 54.96465675 83.57464393 57.77857463 81.8671875 60.7265625 C81.23425781 61.82613281 80.60132813 62.92570312 79.94921875 64.05859375 C79.25785576 65.24742099 78.56644827 66.43622235 77.875 67.625 C77.15437198 68.87336563 76.43433046 70.12206998 75.71484375 71.37109375 C74.22069053 73.96388176 72.72403245 76.55519882 71.22558594 79.14550781 C67.79338022 85.08347309 64.39869229 91.04280788 61 97 C59.66706242 99.33355955 58.33353021 101.66677908 57 104 C56.33332238 105.16666041 55.66665571 106.33332707 55 107.5 C51 114.5 51 114.5 50.00009155 116.24983215 C49.33311095 117.4170533 48.66613911 118.58427946 47.99917603 119.75151062 C46.33738433 122.65973478 44.67544266 125.56787303 43.01318359 128.47583008 C39.95521661 133.82579395 36.8985374 139.17647784 33.847229 144.53024292 C32.4438214 146.99241904 31.03956404 149.45411005 29.63525391 151.91577148 C28.67398892 153.60158589 27.7139155 155.28807956 26.75390625 156.97460938 C25.51666444 159.1430661 24.24848601 161.29413265 22.95166016 163.42749023 C21.4087115 166.06746697 20.35646425 168.69239249 19.34130859 171.57446289 C17.39543494 176.52948887 15.44909543 180.8585165 11 184 C2.14679685 186.65883991 -7.4529561 185.68256622 -16.57324219 185.16729736 C-20.00408245 184.99206079 -23.43705118 184.91548292 -26.87109375 184.83007812 C-33.58627561 184.64330546 -40.29196498 184.35948746 -47 184 C-45.86257338 180.3743314 -44.65512983 177.08819025 -42.7421875 173.8046875 C-42.28996826 173.02134033 -41.83774902 172.23799316 -41.37182617 171.4309082 C-40.87787354 170.5874585 -40.3839209 169.74400879 -39.875 168.875 C-38.78484707 166.99106429 -37.69502043 165.10693975 -36.60546875 163.22265625 C-35.73027588 161.71469482 -35.73027588 161.71469482 -34.83740234 160.17626953 C-31.93480452 155.15862434 -29.06810128 150.12058277 -26.19775391 145.08444214 C-20.62361317 135.30763772 -15.01241158 125.55298853 -9.375 115.8125 C-3.90312109 106.35541707 1.46883521 96.84718772 6.77270508 87.29492188 C9.76509715 81.92389608 12.81244375 76.59448617 15.953125 71.30859375 C16.92173462 69.67494873 16.92173462 69.67494873 17.90991211 68.00830078 C19.14716867 65.93006539 20.39236499 63.85652932 21.64672852 61.78857422 C22.20287842 60.85416504 22.75902832 59.91975586 23.33203125 58.95703125 C23.82421143 58.14210205 24.3163916 57.32717285 24.82348633 56.48754883 C26.20979201 53.55642855 26.80954984 51.24160392 27 48 C26.09463493 45.40547823 26.09463493 45.40547823 24.4921875 42.97265625 C23.92322754 42.02592041 23.35426758 41.07918457 22.76806641 40.10375977 C22.14335449 39.10014404 21.51864258 38.09652832 20.875 37.0625 C19.58695936 34.92803737 18.30054441 32.79259302 17.015625 30.65625 C16.02079102 29.0165625 16.02079102 29.0165625 15.00585938 27.34375 C11.78279719 21.97093358 8.70062912 16.52064047 5.625 11.0625 C5.06022949 10.06806885 4.49545898 9.0736377 3.91357422 8.04907227 C3.14037842 6.68093384 3.14037842 6.68093384 2.3515625 5.28515625 C1.89604004 4.47957275 1.44051758 3.67398926 0.97119141 2.84399414 C0 1 0 1 0 0 Z " fill="#F41A2C" transform="translate(175,14)"/>
<path d="M0 0 C4.28064532 0.13848046 8.5617044 0.15052198 12.84424376 0.17655897 C20.93599073 0.24467825 29.02112087 0.42479396 37.10996574 0.64624774 C46.32559691 0.89301731 55.54156162 1.01331782 64.7596792 1.12354732 C83.70512409 1.35290175 102.64442784 1.73929602 121.58479857 2.23066664 C122.00024428 2.98278929 122.41568999 3.73491194 122.84372497 4.50982618 C124.42263247 7.36612744 126.0032477 10.2214707 127.5849359 13.07623243 C128.26229276 14.29956103 128.93901488 15.52324134 129.61502624 16.74731398 C135.71135984 27.78435206 142.08250784 38.63559542 148.62947631 49.4125514 C149.58479857 51.23066664 149.58479857 51.23066664 149.58479857 53.23066664 C99.09479857 53.23066664 48.60479857 53.23066664 -3.41520143 53.23066664 C-4.07520143 55.21066664 -4.73520143 57.19066664 -5.41520143 59.23066664 C-6.32116806 60.96918336 -7.28061625 62.68067616 -8.28629518 64.36347914 C-9.14070191 65.80690687 -9.14070191 65.80690687 -10.01236939 67.27949476 C-10.61967896 68.29463148 -11.22698853 69.3097682 -11.85270143 70.35566664 C-18.26434115 81.19665165 -24.42005784 92.1547039 -30.41520143 103.23066664 C-31.07520143 103.23066664 -31.73520143 103.23066664 -32.41520143 103.23066664 C-38.2428431 93.16628692 -38.2428431 93.16628692 -41.13395143 88.13618422 C-41.47447541 87.54376432 -41.8149994 86.95134443 -42.16584229 86.34097242 C-42.86544822 85.1238056 -43.56497105 83.90659101 -44.26441407 82.68933058 C-46.59936731 78.63152047 -48.96402369 74.59219957 -51.34098268 70.55879164 C-52.5326987 68.51209698 -53.7241191 66.46523015 -54.91520143 64.41816664 C-55.48456422 63.46546888 -56.05392701 62.51277113 -56.64054322 61.53120375 C-57.15399293 60.64183119 -57.66744264 59.75245863 -58.19645143 58.83613539 C-58.65084596 58.06422865 -59.10524049 57.29232191 -59.57340455 56.49702406 C-60.65412501 53.58741617 -60.35167965 52.17145738 -59.41520143 49.23066664 C-58.22281861 46.7172389 -58.22281861 46.7172389 -56.71207643 44.04707289 C-56.1423108 43.03451429 -55.57254518 42.0219557 -54.98551393 40.97871351 C-54.08445924 39.40186781 -54.08445924 39.40186781 -53.16520143 37.79316664 C-52.33375611 36.31493422 -52.33375611 36.31493422 -51.48551393 34.80683851 C-50.27637456 32.6695382 -49.02549269 30.5554483 -47.73928285 28.46362257 C-45.89882287 25.324346 -44.62416798 22.183801 -43.38079286 18.76699781 C-34.87991134 -2.14290395 -19.70312491 -0.74570251 0 0 Z " fill="#14235E" transform="translate(112.41520142555237,277.76933336257935)"/>
<path d="M0 0 C1.41012737 1.19162114 2.80690345 2.39928662 4.1875 3.625 C5.10982422 4.37330078 5.10982422 4.37330078 6.05078125 5.13671875 C15.09626574 13.09915188 19.61107035 25.95942062 21.1875 37.625 C21.1875 39.935 21.1875 42.245 21.1875 44.625 C13.5975 44.625 6.0075 44.625 -1.8125 44.625 C-2.51375 42.170625 -3.215 39.71625 -3.9375 37.1875 C-7.01909818 27.13960387 -10.52397673 19.95955447 -20.14453125 14.84375 C-28.07373976 11.22162254 -35.29134662 10.36805634 -43.9375 10.3125 C-44.77265137 10.30686035 -45.60780273 10.3012207 -46.46826172 10.29541016 C-57.19870539 10.42020735 -67.98339638 12.79589638 -75.8125 20.625 C-80.3953071 28.11850891 -81.48610508 34.89355307 -80.8125 43.625 C-78.76308691 50.01434669 -74.24979141 53.67022732 -68.56640625 56.90234375 C-58.64216513 61.51792692 -47.70099249 63.4094716 -37.09619141 65.85888672 C8.52167812 76.50192572 8.52167812 76.50192572 21.1875 92.625 C28.80028349 105.1577473 30.02993193 118.92023726 27.5703125 133.2109375 C23.67306777 146.35120512 14.51152394 155.59138949 3.03515625 162.53125 C-8.22869403 168.62121258 -20.98777389 172.05920326 -33.8125 172.625 C-34.6375 172.6765625 -35.4625 172.728125 -36.3125 172.78125 C-57.91160217 173.50122007 -79.74785846 167.83431082 -96 153.0625 C-107.62335835 140.69773402 -110.91617881 126.11730992 -111.8125 109.625 C-104.2225 109.625 -96.6325 109.625 -88.8125 109.625 C-88.1525 112.925 -87.4925 116.225 -86.8125 119.625 C-83.43736977 131.46006365 -78.56750918 138.43971575 -67.8125 144.625 C-51.98987145 152.17297984 -33.47283693 152.3958576 -16.8125 147.625 C-9.10244568 144.67329604 -3.67492757 141.72259477 0.453125 134.37109375 C3.64015561 126.89674816 4.69205063 119.76072572 2.375 111.8515625 C-0.96290176 104.13266467 -6.10871558 100.68392294 -13.63476562 97.38964844 C-21.74009967 94.1890938 -29.8062938 92.03205953 -38.3125 90.1875 C-40.96002136 89.5919639 -43.60517266 88.98628305 -46.25 88.37890625 C-47.53519531 88.08387207 -48.82039062 87.78883789 -50.14453125 87.48486328 C-69.86579115 82.8617085 -87.79990181 77.89659269 -101.25 61.6875 C-106.86441511 50.68324639 -107.90455866 37.03757421 -104.625 25.0625 C-99.44236354 11.00911833 -90.16750457 1.25330654 -76.8125 -5.375 C-53.6523006 -14.96916671 -20.750433 -15.60656512 0 0 Z " fill="#14235E" transform="translate(834.8125,123.375)"/>
<path d="M0 0 C7.25249388 6.19041318 9.88633688 14.79676451 11 24 C11.11095627 26.72021024 11.18366373 29.41809254 11.20532227 32.13842773 C11.21522186 32.91973557 11.22512146 33.7010434 11.23532104 34.50602722 C11.26667943 37.0651862 11.29159095 39.62436369 11.31640625 42.18359375 C11.33699799 43.96721352 11.35799502 45.75082865 11.37937927 47.53443909 C11.43437074 52.21145861 11.48388039 56.88852049 11.53222656 61.56561279 C11.58260977 66.34521215 11.63820774 71.12475058 11.69335938 75.90429688 C11.80066023 85.26947911 11.90216664 94.63471441 12 104 C15.63 104 19.26 104 23 104 C23 109.61 23 115.22 23 121 C17.62840336 123.68579832 14.68878445 124.49631262 9 124.4375 C8.31421875 124.45748047 7.6284375 124.47746094 6.921875 124.49804688 C1.80201301 124.49316151 -1.06636897 123.20043945 -5 120 C-8.33655199 115.82931001 -9.77666829 112.09721546 -11 107 C-11.825 107.99 -12.65 108.98 -13.5 110 C-17.2090013 113.72417104 -21.28444286 115.98597143 -25.9375 118.3125 C-26.60523438 118.64958984 -27.27296875 118.98667969 -27.9609375 119.33398438 C-40.86821381 125.56117909 -58.1526392 126.6299956 -71.875 122.375 C-81.89353609 118.21031785 -89.57366522 112.30084292 -93.875 102.125 C-96.71934634 92.31455992 -96.46322701 79.63899725 -92.29296875 70.31640625 C-86.43915356 59.82905759 -76.61370962 54.52836326 -65.32177734 51.21386719 C-55.25334737 48.62809143 -45.02369499 46.95876336 -34.75 45.4375 C-22.44641762 44.00993255 -22.44641762 44.00993255 -12.8125 37.1875 C-11.13371157 30.60148386 -11.70123159 24.92533495 -15 19 C-20.2237143 13.41184051 -26.19571443 12.00425902 -33.5859375 11.69921875 C-35.18218017 11.6799512 -36.77867965 11.67639992 -38.375 11.6875 C-39.20990967 11.69241455 -40.04481934 11.6973291 -40.9050293 11.70239258 C-48.46532934 11.84606849 -55.19101352 12.67829613 -61.4375 17.25 C-66.35021461 22.52218153 -67.25561963 28.02247852 -69 35 C-76.26 35 -83.52 35 -91 35 C-89.74228915 22.42289152 -86.80109093 10.6886359 -76.80859375 2.12109375 C-70.81883841 -2.13192858 -65.07144527 -4.99826798 -58 -7 C-57.20722656 -7.22558594 -56.41445313 -7.45117188 -55.59765625 -7.68359375 C-37.98713073 -11.71760039 -14.96490027 -10.75443681 0 0 Z M-17.62109375 58.8515625 C-26.24549916 61.52822388 -34.98623641 62.69576351 -43.91601562 63.890625 C-52.58273254 65.18907617 -62.1722185 67.11509816 -68.58886719 73.60766602 C-72.55185441 79.30644164 -72.52576052 85.32762102 -72 92 C-70.0520237 97.63887875 -66.88149676 100.59619389 -61.5625 103.1875 C-49.12830506 107.13004961 -36.39093104 104.90397004 -25 99 C-18.29761266 95.45167729 -14.48198145 89.91879657 -11.8359375 82.921875 C-10.50398685 77.88424737 -10.78754161 72.73263639 -10.875 67.5625 C-10.88402344 66.54478516 -10.89304687 65.52707031 -10.90234375 64.47851562 C-10.92575302 61.98542844 -10.958543 59.49284141 -11 57 C-13.19572139 57 -15.57659751 58.17623327 -17.62109375 58.8515625 Z " fill="#14235E" transform="translate(967,170)"/>
<path d="M0 0 C6.34996096 5.42005036 9.58540875 12.69922011 10.37948608 20.93661499 C10.59063062 25.70009469 10.58039618 30.46327439 10.57421875 35.23046875 C10.58668567 36.99304071 10.60102586 38.75560032 10.61714172 40.5181427 C10.65498152 45.13331703 10.67032163 49.74827743 10.67993164 54.36358643 C10.69975312 61.75939631 10.75673167 69.15504495 10.80869484 76.55068398 C10.8239492 79.1225238 10.83121351 81.69428213 10.83683777 84.26615906 C10.84385807 85.85086098 10.85095931 87.43556254 10.8581543 89.02026367 C10.85762558 89.72744537 10.85709686 90.43462708 10.85655212 91.16323853 C10.88285311 95.54853211 11.29390512 99.68513659 12 104 C15.63 104 19.26 104 23 104 C23 109.61 23 115.22 23 121 C17.62840336 123.68579832 14.68878445 124.49631262 9 124.4375 C8.31421875 124.45748047 7.6284375 124.47746094 6.921875 124.49804688 C0.61631689 124.49203012 -2.91012078 122.08987922 -7.25 117.75 C-9.50773305 114.20213379 -10.16363115 111.11214685 -11 107 C-11.825 107.99 -12.65 108.98 -13.5 110 C-17.2090013 113.72417104 -21.28444286 115.98597143 -25.9375 118.3125 C-26.60523438 118.64958984 -27.27296875 118.98667969 -27.9609375 119.33398438 C-36.43417641 123.42195051 -44.06178225 124.34297519 -53.375 124.3125 C-54.84066406 124.33666992 -54.84066406 124.33666992 -56.3359375 124.36132812 C-67.81663382 124.36896157 -78.77219945 121.21609415 -87.078125 112.92578125 C-95.15133903 103.20739546 -95.93952745 93.3401084 -95.20703125 81.10742188 C-94.48964788 73.80500054 -91.52033667 67.16528213 -86.390625 61.90625 C-71.2912278 49.86620779 -50.93600478 47.55275393 -32.37768555 45.07495117 C-25.31776284 44.08539215 -17.58076807 42.91682543 -13 37 C-10.70933624 32.41867248 -11.70915606 26.96947978 -13.125 22.25 C-16.03949872 17.19820222 -19.02448776 14.60948921 -24.62109375 12.8828125 C-29.21383846 11.82059875 -33.67527607 11.65482027 -38.375 11.6875 C-39.20990967 11.69241455 -40.04481934 11.6973291 -40.9050293 11.70239258 C-48.46532934 11.84606849 -55.19101352 12.67829613 -61.4375 17.25 C-66.35021461 22.52218153 -67.25561963 28.02247852 -69 35 C-75.93 35 -82.86 35 -90 35 C-92.04964917 28.8510525 -89.31360882 21.06799667 -86.82421875 15.25390625 C-85.64360632 13.08640417 -84.38671331 11.04057496 -83 9 C-82.443125 8.13375 -81.88625 7.2675 -81.3125 6.375 C-62.46664402 -12.98020344 -21.882501 -15.72572953 0 0 Z M-17.21875 58.875 C-25.00660426 61.49245634 -32.81058848 62.42382657 -40.93359375 63.421875 C-55.77923166 65.24938668 -55.77923166 65.24938668 -68 73 C-72.25227714 78.94753714 -72.90020678 84.83128017 -72 92 C-70.0520237 97.63887875 -66.88149676 100.59619389 -61.5625 103.1875 C-51.30734757 106.4391337 -38.48014061 105.56186849 -28.53515625 101.421875 C-20.14352746 96.71532202 -14.2430851 90.32121961 -11.41625977 81.09472656 C-10.9239999 78.61754787 -10.88765977 76.3225193 -10.90234375 73.796875 C-10.90556641 72.8171875 -10.90878906 71.8375 -10.91210938 70.828125 C-10.92048828 69.81234375 -10.92886719 68.7965625 -10.9375 67.75 C-10.94201172 66.71875 -10.94652344 65.6875 -10.95117188 64.625 C-10.96293912 62.08327427 -10.97937989 59.54166681 -11 57 C-13.08949751 57 -15.29035231 58.18021898 -17.21875 58.875 Z " fill="#14235E" transform="translate(664,170)"/>
<path d="M0 0 C16.23374131 12.30724471 21.55636568 27.94727988 27 47 C27 53.27 27 59.54 27 66 C-4.02 66 -35.04 66 -67 66 C-63.40909369 84.77830993 -63.40909369 84.77830993 -52.0546875 98.75390625 C-41.65004661 105.06394512 -29.65520003 106.38699118 -17.9375 103.875 C-10.89710202 101.96467545 -6.29233315 98.78797275 -1.6875 93.1875 C0.54970911 89.1728676 0.54970911 89.1728676 3 81 C10.26 81 17.52 81 25 81 C21.90820028 96.4589986 15.38974014 108.42278465 2.30859375 117.6875 C-12.43627084 126.07036718 -31.29903431 127.56940445 -47.75 123.875 C-61.94291033 119.43200198 -73.70520711 109.9625609 -81 97 C-91.18845298 76.69518215 -92.40584318 54.05908053 -85.93359375 32.4375 C-83.31561048 25.11060291 -79.79244257 19.10452661 -75 13 C-74.57847656 12.42636719 -74.15695312 11.85273438 -73.72265625 11.26171875 C-57.33204121 -10.09574933 -22.0034512 -14.61246143 0 0 Z M-56.98828125 21.6015625 C-63.48157247 29.34307863 -64.99051562 35.90515617 -66 46 C-42.9 46 -19.8 46 4 46 C1.85739872 35.2869936 -0.88772683 24.9642712 -10.328125 18.375 C-25.40644396 8.98490915 -43.73957027 8.80478241 -56.98828125 21.6015625 Z " fill="#14235E" transform="translate(1178,169)"/>
<path d="M0 0 C7.92 0 15.84 0 24 0 C24 51.15 24 102.3 24 155 C54.03 155 84.06 155 115 155 C115 161.93 115 168.86 115 176 C77.05 176 39.1 176 0 176 C0 117.92 0 59.84 0 0 Z " fill="#14235E" transform="translate(445,116)"/>
<path d="M0 0 C7.26 0 14.52 0 22 0 C22 58.08 22 116.16 22 176 C14.74 176 7.48 176 0 176 C0 117.92 0 59.84 0 0 Z " fill="#14235E" transform="translate(1051,116)"/>
<path d="M0 0 C7.26 0 14.52 0 22 0 C22 58.08 22 116.16 22 176 C14.74 176 7.48 176 0 176 C0 117.92 0 59.84 0 0 Z " fill="#14235E" transform="translate(1005,116)"/>
<path d="M0 0 C5.28 0 10.56 0 16 0 C22.6 19.47 29.2 38.94 36 59 C42.6 39.53 49.2 20.06 56 0 C61.28 0 66.56 0 72 0 C72 24.75 72 49.5 72 75 C68.37 75 64.74 75 61 75 C60.67 57.18 60.34 39.36 60 21 C54.06 38.82 48.12 56.64 42 75 C38.04 75 34.08 75 30 75 C28.23935557 69.86314721 26.47955054 64.72600782 24.72045898 59.58862305 C24.12432469 57.84798784 23.52797738 56.10742556 22.93139648 54.36694336 C22.06435344 51.83727781 21.19812702 49.30733376 20.33203125 46.77734375 C20.07347855 46.02355942 19.81492584 45.26977509 19.54853821 44.4931488 C16.98822783 37.0094508 14.50152277 29.50456831 12 22 C11.67 39.49 11.34 56.98 11 75 C7.37 75 3.74 75 0 75 C0 50.25 0 25.5 0 0 Z " fill="#14235E" transform="translate(444,332)"/>
<path d="M0 0 C3.96 0 7.92 0 12 0 C12.0093457 1.56363281 12.01869141 3.12726562 12.02832031 4.73828125 C12.06830676 10.56066984 12.13409094 16.38253489 12.20751953 22.20458984 C12.23567877 24.72047175 12.25691828 27.2364413 12.27099609 29.75244141 C12.29249456 33.37708236 12.3391837 37.00067517 12.390625 40.625 C12.39185364 41.74302002 12.39308228 42.86104004 12.39434814 44.01293945 C12.52012798 50.77755637 13.36841837 55.24314636 17 61 C21.63946638 64.80674164 27.09776157 64.49886144 32.86328125 64.34765625 C37.37773676 63.84729941 39.49190423 62.89799215 43 60 C46.95307997 54.30554993 46.47468203 48.26834724 46.51171875 41.6015625 C46.52966995 40.41146576 46.54762115 39.22136902 46.56611633 37.99520874 C46.6201699 34.20517487 46.65410029 30.41526662 46.6875 26.625 C46.72067732 24.05076379 46.75516736 21.47654415 46.79101562 18.90234375 C46.87589408 12.60165318 46.94272969 6.30099956 47 0 C50.96 0 54.92 0 59 0 C59.04975979 6.6345106 59.08588896 13.26891046 59.10986328 19.90356445 C59.11986707 22.15651341 59.13347436 24.40944957 59.15087891 26.66235352 C59.17537598 29.91686175 59.18653966 33.17119703 59.1953125 36.42578125 C59.20563507 37.41894852 59.21595764 38.41211578 59.22659302 39.43537903 C59.22830912 50.34311888 58.14775914 59.46190367 51 68 C44.7438435 74.2561565 37.93285016 75.30431847 29.5 75.375 C20.69446783 75.28242951 14.19518599 73.93101084 7.53515625 67.7109375 C-2.99904534 55.97052963 -0.24640706 36.257492 -0.125 21.6875 C-0.11494844 19.5787803 -0.10582645 17.47005595 -0.09765625 15.36132812 C-0.07581908 10.2407689 -0.04140944 5.12043682 0 0 Z " fill="#14235E" transform="translate(444,16)"/>
<path d="M0 0 C3.3 0 6.6 0 10 0 C10 24.09 10 48.18 10 73 C6.7 73 3.4 73 0 73 C-0.33 72.01 -0.66 71.02 -1 70 C-1.928125 70.639375 -2.85625 71.27875 -3.8125 71.9375 C-9.60314509 75.684388 -15.26128181 75.87059216 -22 75 C-29.26387217 71.95981434 -34.13318813 66.50541523 -37.10546875 59.33203125 C-38.21135393 55.2127297 -38.38386015 51.43505558 -38.375 47.1875 C-38.37338867 46.38795898 -38.37177734 45.58841797 -38.37011719 44.76464844 C-38.24446138 38.72577825 -37.28630806 34.14778325 -34 29 C-33.46375 27.9275 -32.9275 26.855 -32.375 25.75 C-28.38989733 21.13567059 -23.41885823 18.59212153 -17.40625 17.55078125 C-11.44950161 17.28419837 -6.97632588 18.76473853 -2 22 C-1.67 22.33 -1.34 22.66 -1 23 C-0.67 15.41 -0.34 7.82 0 0 Z M-24.1875 32.125 C-28.74425159 39.3529508 -28.74634886 47.80217129 -27 56 C-25.06047425 60.43220143 -23.03478042 63.31014639 -19 66 C-13.78043579 66.76758297 -9.41762588 66.97461779 -5 63.9375 C0.571892 55.75378363 0.78357209 48.85994874 0 39 C-0.85048363 34.7334071 -2.73312585 32.29169965 -5.6875 29.0625 C-12.64052527 24.73325785 -18.50090139 26.60087564 -24.1875 32.125 Z " fill="#14235E" transform="translate(1004,16)"/>
<path d="M0 0 C3.3 0 6.6 0 10 0 C10 24.09 10 48.18 10 73 C7.03 73 4.06 73 1 73 C0.67 71.68 0.34 70.36 0 69 C-0.928125 69.804375 -1.85625 70.60875 -2.8125 71.4375 C-8.14848367 76.06201918 -14.26129127 75.45762203 -21 75 C-27.22273821 73.20497936 -31.36179058 68.1722006 -35 63 C-39.13267372 54.59735444 -39.18079922 44.69869697 -36.875 35.75 C-34.33086859 28.32065852 -29.94104082 22.77230479 -23 19 C-17.24500756 17.21355443 -11.14486328 17.14205469 -5.5625 19.375 C-3.69348146 20.56023127 -1.84144657 21.77236895 0 23 C0 15.41 0 7.82 0 0 Z M-23 31 C-27.86907146 37.71596064 -27.51855918 44.97193563 -27 53 C-26.15673889 57.48786421 -24.42713312 60.49994171 -21.4375 64 C-16.82051792 66.68624412 -13.21894987 67.01833168 -8 66 C-3.36565219 63.47217392 -1.81705333 61.26390031 -0.125 56.3125 C1.93929897 48.03072914 2.00483806 39.7258687 -2 32 C-5.5242458 28.56171141 -7.84383403 27.09634716 -12.75 26.6875 C-17.16463756 26.75159637 -19.61947372 28.09117506 -23 31 Z " fill="#14235E" transform="translate(1156,16)"/>
<path d="M0 0 C3.36422398 3.26527622 4.07082637 5.14376189 4.35205078 9.91308594 C4.35173566 11.45771849 4.34052744 13.0023747 4.3203125 14.546875 C4.3174826 15.36246887 4.31465271 16.17806274 4.31173706 17.01837158 C4.30056558 19.61656528 4.27546675 22.21441095 4.25 24.8125 C4.23996627 26.57681793 4.23084111 28.34114128 4.22265625 30.10546875 C4.20063619 34.42461273 4.16612733 38.74349741 4.125 43.0625 C6.105 43.0625 8.085 43.0625 10.125 43.0625 C10.22265625 49.21484375 10.22265625 49.21484375 10.125 51.0625 C8.47534831 52.71215169 6.5773645 52.31199498 4.3125 52.375 C0.74765535 52.34440048 -0.50439559 52.31839352 -3.5 50.25 C-4.875 48.0625 -4.875 48.0625 -4.875 45.0625 C-5.79732422 45.69478516 -5.79732422 45.69478516 -6.73828125 46.33984375 C-7.54652344 46.88769531 -8.35476563 47.43554688 -9.1875 48 C-9.98800781 48.54527344 -10.78851562 49.09054688 -11.61328125 49.65234375 C-17.1807838 53.12361909 -23.53347347 52.6056223 -29.875 52.0625 C-33.9051315 50.84860497 -36.38133306 48.56882506 -39.3125 45.5625 C-41.62243187 40.38825261 -41.62570518 35.63916708 -40.875 30.0625 C-38.58869312 25.13814672 -35.67172079 22.54968856 -30.875 20.0625 C-24.25684279 18.16473441 -17.26666899 17.4876948 -10.46484375 16.52734375 C-7.95309846 16.33095329 -7.95309846 16.33095329 -6.875 15.0625 C-6.61206944 11.03089809 -6.58095156 9.50357266 -8.875 6.0625 C-13.5041827 4.5194391 -18.04583428 4.42708346 -22.875 5.0625 C-26.8388953 7.91650462 -27.68624466 9.30747864 -28.875 14.0625 C-32.175 14.0625 -35.475 14.0625 -38.875 14.0625 C-38.47379957 8.24509379 -37.81359349 4.62297667 -33.875 0.0625 C-23.67737948 -7.36041912 -10.29805282 -6.93999212 0 0 Z M-16.125 25.75 C-17.41470703 25.97333008 -17.41470703 25.97333008 -18.73046875 26.20117188 C-24.14633349 27.26515147 -27.46459658 28.4049036 -30.875 33.0625 C-30.875 36.54900267 -30.73362283 38.89140367 -28.640625 41.74609375 C-25.0025344 44.45856396 -20.17614817 43.59713993 -15.875 43.0625 C-11.86933227 41.78731441 -9.41793716 39.81560638 -6.9375 36.375 C-5.58794309 32.16755788 -5.61238901 28.43934985 -5.875 24.0625 C-9.27511463 24.0625 -12.79950878 25.1108592 -16.125 25.75 Z " fill="#14235E" transform="translate(1084.875,38.9375)"/>
<path d="M0 0 C7.77665996 8.19701995 7.5379866 15.81979901 8.3125 27.4375 C-4.5575 27.4375 -17.4275 27.4375 -30.6875 27.4375 C-28.78314016 38.00337843 -28.78314016 38.00337843 -23.6875 42.4375 C-19.16972948 43.82234423 -14.30407599 43.99936552 -9.8125 42.4375 C-5.81213672 39.8772675 -4.69291889 37.68898804 -2.6875 33.4375 C0.6125 33.4375 3.9125 33.4375 7.3125 33.4375 C6.39904995 39.53074913 3.32778858 44.77737762 -1.3125 48.87109375 C-8.35941742 53.68061489 -17.45662541 53.53336174 -25.6875 52.4375 C-31.85606791 50.14678513 -36.8112607 45.36324602 -39.6875 39.4375 C-43.03206462 29.54562515 -43.18172576 18.5743855 -39.078125 8.87890625 C-35.62089314 2.80932784 -30.67052384 -2.11159495 -23.88671875 -4.1640625 C-14.962167 -5.78094399 -7.75310429 -4.50761877 0 0 Z M-28.6875 10.4375 C-30.31101077 13.47275926 -30.6875 14.99948263 -30.6875 18.4375 C-21.4475 18.4375 -12.2075 18.4375 -2.6875 18.4375 C-3.91551073 10.26132702 -3.91551073 10.26132702 -8.6875 5.4375 C-16.79608441 2.73463853 -23.21758738 3.67585875 -28.6875 10.4375 Z " fill="#14235E" transform="translate(570.6875,355.5625)"/>
<path d="M0 0 C9.16130567 7.95899014 9.11215193 15.57012705 10 28 C-2.87 28 -15.74 28 -29 28 C-26.93706763 37.33729088 -26.93706763 37.33729088 -21 43 C-15.54881157 43.83922596 -10.78545641 43.96414646 -5.875 41.3125 C-3.61901494 38.76353912 -3.61901494 38.76353912 -2 34 C1.63 34 5.26 34 9 34 C7.81030692 40.98944686 4.1490357 45.24923226 -1 50 C-7.27629996 54.14235797 -14.7296033 53.75558395 -22 53 C-29.20050279 50.91387302 -33.98177908 46.06319929 -37.8125 39.75 C-41.79947804 31.32183124 -41.51277344 20.17859603 -38.5 11.4375 C-35.45216473 5.1486568 -30.59325138 -0.18487035 -24.125 -3 C-15.74438809 -5.50436254 -7.50205677 -4.49872081 0 0 Z M-26.25 10.3125 C-28.46532748 13.3223218 -28.46532748 13.3223218 -29 19 C-19.76 19 -10.52 19 -1 19 C-2.81028447 11.01753121 -2.81028447 11.01753121 -8 6 C-14.73351426 2.63324287 -21.36935026 5.29627666 -26.25 10.3125 Z " fill="#14235E" transform="translate(763,38)"/>
<path d="M0 0 C5.86443893 4.05999618 9.57499186 8.92169482 11 16 C11.69308859 27.56662594 11.82385796 37.63945311 4.75 47.375 C-1.8855572 53.70894096 -7.81672937 54.59329165 -16.77368164 54.46826172 C-23.42164895 54.18830102 -27.90447629 53.09552371 -32.6953125 48.3046875 C-38.67176477 41.17336522 -40.57427104 32.90384655 -40.2890625 23.73828125 C-39.35474593 14.88752561 -36.23071596 7.80281463 -29.625 1.75 C-21.4201651 -4.84841459 -9.16387685 -5.11615546 0 0 Z M-24 9 C-29.40896489 16.61670565 -29.59762961 23.9051639 -29 33 C-28.13496288 37.33880823 -26.72038912 40.2976206 -23.5 43.4375 C-19.25729156 46.08919278 -15.9389573 46.33484456 -11 46 C-5.81553191 44.17018773 -3.51952329 41.85908063 -1 37 C1.88732858 27.99350346 1.60227416 19.76146341 -2 11 C-4.33180781 8.01237125 -5.40986499 7.19671167 -9 6 C-14.53096734 5.51252491 -19.68698665 5.06754665 -24 9 Z " fill="#14235E" transform="translate(762,354)"/>
<path d="M0 0 C4.17870659 4.17870659 5.1875 7.29386745 5.1875 13.1875 C1.8875 13.1875 -1.4125 13.1875 -4.8125 13.1875 C-5.4725 10.8775 -6.1325 8.5675 -6.8125 6.1875 C-11.70717397 4.88225361 -16.79029329 4.57874767 -21.8125 5.1875 C-24.6142483 6.6506891 -24.6142483 6.6506891 -25.8125 9.1875 C-25.43844377 11.7982614 -25.43844377 11.7982614 -24.8125 14.1875 C-23.78511719 14.50203125 -22.75773438 14.8165625 -21.69921875 15.140625 C-18.08888439 16.25149711 -14.48577043 17.38395245 -10.88623047 18.52929688 C-9.073497 19.10465942 -7.25769506 19.6703363 -5.44140625 20.234375 C-1.46492659 21.55087573 1.57665755 22.67846463 4.8125 25.375 C7.42078215 30.71012257 7.76706871 35.25560429 6.0625 40.9375 C2.6463741 46.85878489 -1.30644053 50.12808631 -7.8125 52.1875 C-10.56481438 52.49331271 -13.0118548 52.66600002 -15.75 52.625 C-16.4522168 52.61815186 -17.15443359 52.61130371 -17.87792969 52.60424805 C-24.94721657 52.38507717 -29.24814547 50.88682055 -34.1875 45.6875 C-37.12179358 41.17320218 -38.06254674 38.68852835 -37.8125 33.1875 C-34.8425 33.1875 -31.8725 33.1875 -28.8125 33.1875 C-25.8125 38.9375 -25.8125 38.9375 -25.8125 41.1875 C-22.28244485 42.27766409 -18.99371037 42.32094314 -15.3125 42.3125 C-14.1884375 42.31507812 -13.064375 42.31765625 -11.90625 42.3203125 C-9.3404301 42.21016367 -7.24983573 41.94020662 -4.8125 41.1875 C-4.04727199 37.83291845 -4.04727199 37.83291845 -3.8125 34.1875 C-5.89807079 31.31235504 -8.0822647 30.59621955 -11.453125 29.7578125 C-12.35933594 29.51933594 -13.26554688 29.28085938 -14.19921875 29.03515625 C-16.09153341 28.55755978 -17.98475364 28.0835355 -19.87890625 27.61328125 C-26.38543509 25.89231818 -31.99939564 23.85676656 -36.25 18.3125 C-37.8406611 12.30333586 -36.78971745 7.54649141 -33.8125 2.1875 C-24.24623663 -7.37876337 -10.9555532 -7.0602454 0 0 Z " fill="#14235E" transform="translate(890.8125,38.8125)"/>
<path d="M0 0 C4.65569992 -1.05081628 8.39266408 -1.37865277 13 0 C16.55837398 3.57058681 18.75704423 8.07280577 21.07421875 12.5 C21.70972656 13.655 22.34523438 14.81 23 16 C23.66 16 24.32 16 25 16 C26.12488509 14.47798742 26.12488509 14.47798742 27.1796875 12.5 C34.27170618 0.54096193 34.27170618 0.54096193 39.39453125 -1.0625 C42.40938777 -1.00527852 45.07906395 -0.73405723 48 0 C46.67440444 3.6837946 45.04608674 6.5553853 42.70703125 9.6875 C42.07732422 10.55117188 41.44761719 11.41484375 40.79882812 12.3046875 C39.4704731 14.10717514 38.1344649 15.9040468 36.79101562 17.6953125 C36.16517578 18.55898438 35.53933594 19.42265625 34.89453125 20.3125 C34.31550049 21.09238281 33.73646973 21.87226563 33.13989258 22.67578125 C31.68823346 25.6356859 31.95515746 26.91393332 33 30 C34.01001879 31.95319481 34.01001879 31.95319481 35.328125 33.7421875 C35.79863281 34.41636719 36.26914062 35.09054687 36.75390625 35.78515625 C37.24761719 36.47480469 37.74132812 37.16445313 38.25 37.875 C38.72824219 38.55691406 39.20648437 39.23882812 39.69921875 39.94140625 C41.59967362 42.64530545 43.5114007 45.3382877 45.47460938 47.99707031 C49 52.79786671 49 52.79786671 49 55 C44.27557343 56.23444694 40.68078828 56.51568382 36 55 C30.87127918 49.94807734 27.40488721 43.28423143 24 37 C21.02413108 40.61116678 18.37970191 44.33899071 15.8125 48.25 C12.09608541 53.90391459 12.09608541 53.90391459 11 55 C8.98035801 55.07244053 6.95832876 55.08377188 4.9375 55.0625 C3.83277344 55.05347656 2.72804688 55.04445313 1.58984375 55.03515625 C0.30787109 55.01775391 0.30787109 55.01775391 -1 55 C0.29010094 51.48238665 1.80895585 48.58806619 3.96875 45.53125 C4.53980469 44.71269531 5.11085938 43.89414062 5.69921875 43.05078125 C6.89973958 41.35026042 8.10026042 39.64973958 9.30078125 37.94921875 C9.87183594 37.13066406 10.44289063 36.31210937 11.03125 35.46875 C11.55267578 34.73076172 12.07410156 33.99277344 12.61132812 33.23242188 C14.11437678 30.81612847 15.25545516 28.7548159 16 26 C15.25567138 23.78612982 15.25567138 23.78612982 13.7109375 21.78515625 C12.91623047 20.63176758 12.91623047 20.63176758 12.10546875 19.45507812 C11.53441406 18.66552734 10.96335937 17.87597656 10.375 17.0625 C9.82714844 16.27681641 9.27929688 15.49113281 8.71484375 14.68164062 C7.15465537 12.44611891 5.57848189 10.22262273 4 8 C0 2.32653061 0 2.32653061 0 0 Z " fill="#14235E" transform="translate(587,352)"/>
<path d="M0 0 C4.94445467 2.86778371 7.45848803 6.40777821 9.125 11.8125 C9.39383904 15.03995027 9.35773085 18.25163055 9.3203125 21.48828125 C9.3174826 22.4134404 9.31465271 23.33859955 9.31173706 24.29179382 C9.30057392 27.23632942 9.27547637 30.18055688 9.25 33.125 C9.23996521 35.12564664 9.23084023 37.12629806 9.22265625 39.12695312 C9.20064722 44.0222535 9.16614391 48.91732457 9.125 53.8125 C5.825 53.8125 2.525 53.8125 -0.875 53.8125 C-0.88958252 52.69278809 -0.90416504 51.57307617 -0.91918945 50.41943359 C-0.97734886 46.24821726 -1.05458023 42.07753081 -1.13745117 37.90673828 C-1.17061773 36.10474271 -1.19867525 34.30264533 -1.22143555 32.50048828 C-1.25513432 29.90353177 -1.30745649 27.30750134 -1.36328125 24.7109375 C-1.36967117 23.9107016 -1.3760611 23.1104657 -1.38264465 22.28598022 C-1.50902007 17.43163379 -2.19964112 14.0217313 -4.875 9.8125 C-9.05011535 7.72494232 -14.38572113 8.46394537 -18.8125 9.5 C-21.52873331 11.22851211 -21.98381066 12.76760309 -22.875 15.8125 C-23.205 16.8025 -23.535 17.7925 -23.875 18.8125 C-24.02846953 21.46856301 -24.13217898 24.10345095 -24.19140625 26.76171875 C-24.21218735 27.53433548 -24.23296844 28.30695221 -24.25437927 29.10298157 C-24.31971038 31.5685648 -24.37868315 34.03425361 -24.4375 36.5 C-24.48070087 38.17253691 -24.52431566 39.84506319 -24.56835938 41.51757812 C-24.6753749 45.6157775 -24.77668857 49.71408296 -24.875 53.8125 C-28.175 53.8125 -31.475 53.8125 -34.875 53.8125 C-34.875 35.9925 -34.875 18.1725 -34.875 -0.1875 C-31.905 -0.1875 -28.935 -0.1875 -25.875 -0.1875 C-25.545 1.4625 -25.215 3.1125 -24.875 4.8125 C-24.33230469 4.46316406 -23.78960938 4.11382812 -23.23046875 3.75390625 C-22.15732422 3.07134766 -22.15732422 3.07134766 -21.0625 2.375 C-20.35480469 1.92253906 -19.64710938 1.47007813 -18.91796875 1.00390625 C-13.33112161 -2.25419772 -5.99814917 -2.29799221 0 0 Z " fill="#14235E" transform="translate(570.875,35.1875)"/>
<path d="M0 0 C4.72582174 2.83150501 7.62716144 6.33837669 9.8125 11.4375 C10.5 14.375 10.5 14.375 10.5 19.375 C7.2 19.375 3.9 19.375 0.5 19.375 C-0.44401042 17.09635417 -1.38802083 14.81770833 -2.33203125 12.5390625 C-3.44439082 10.07352542 -3.44439082 10.07352542 -6.5 8.375 C-11.37604961 7.58987337 -15.26579641 7.56095082 -19.4375 10.3125 C-24.26419274 17.4794074 -25.42051471 24.83262345 -24.5 33.375 C-23.44425605 38.1438026 -22.35751649 42.17469003 -18.5 45.375 C-14.069124 46.85195867 -10.25104711 46.98583039 -5.8125 45.4375 C-2.30537524 42.30952386 -1.20445279 38.7308238 0.5 34.375 C3.8 34.375 7.1 34.375 10.5 34.375 C10.24363498 41.42503805 8.21105989 46.08155743 3.5 51.375 C-2.04178219 56.38004784 -9.62763617 56.15185967 -16.7109375 55.8125 C-23.02307391 55.083676 -26.23542826 53.10370694 -30.234375 48.28515625 C-36.62023662 39.39056327 -37.41150179 30.56567801 -36.22265625 19.8828125 C-35.03477384 13.34380266 -32.51427418 7.81184732 -27.27734375 3.578125 C-19.19753813 -1.93979104 -9.35420944 -4.31044833 0 0 Z " fill="#14235E" transform="translate(704.5,352.625)"/>
<path d="M0 0 C3.96 0 7.92 0 12 0 C16.29 13.2 20.58 26.4 25 40 C28.11190822 30.95190528 28.11190822 30.95190528 31.22167969 21.90307617 C33.74504698 14.57576369 36.32746649 7.27453629 39 0 C42.63 0 46.26 0 50 0 C49.35005883 6.05117643 47.11654303 11.44334196 44.96484375 17.0859375 C44.56672989 18.14285797 44.16861603 19.19977844 43.75843811 20.28872681 C42.48993746 23.65278737 41.21383213 27.01390394 39.9375 30.375 C39.07436613 32.65996606 38.21173017 34.94512026 37.34960938 37.23046875 C35.23883711 42.82250943 33.12124149 48.41192269 31 54 C27.04 54 23.08 54 19 54 C16.4501042 47.11493898 13.90506516 40.2281098 11.36450195 33.33959961 C10.49962343 30.99665941 9.63342186 28.65420716 8.76586914 26.31225586 C7.5188098 22.94512425 6.27652532 19.57626419 5.03515625 16.20703125 C4.45230614 14.63801811 4.45230614 14.63801811 3.85768127 13.03730774 C3.49738327 12.05666855 3.13708527 11.07602936 2.76586914 10.06567383 C2.44832169 9.20629715 2.13077423 8.34692047 1.80360413 7.46150208 C1 5 1 5 0 0 Z " fill="#14235E" transform="translate(649,35)"/>
<path d="M0 0 C0 3.3 0 6.6 0 10 C-0.74765625 10.08636719 -1.4953125 10.17273437 -2.265625 10.26171875 C-8.54176454 11.03844215 -8.54176454 11.03844215 -13.625 14.5 C-16.00747846 18.83177902 -16.21129729 22.1827302 -16.31640625 27.0703125 C-16.33718735 27.86654022 -16.35796844 28.66276794 -16.37937927 29.48312378 C-16.44484149 32.03032685 -16.50374415 34.57763425 -16.5625 37.125 C-16.6056884 38.85027127 -16.64930279 40.57553193 -16.69335938 42.30078125 C-16.80051945 46.53374685 -16.90179623 50.76681753 -17 55 C-20.3 55 -23.6 55 -27 55 C-27 37.18 -27 19.36 -27 1 C-24.03 1 -21.06 1 -18 1 C-17.67 2.98 -17.34 4.96 -17 7 C-16.2575 6.21625 -15.515 5.4325 -14.75 4.625 C-9.75845816 -0.13965357 -6.71405813 -0.22380194 0 0 Z " fill="#14235E" transform="translate(830,34)"/>
<path d="M0 0 C3.63 0 7.26 0 11 0 C11 17.82 11 35.64 11 54 C7.37 54 3.74 54 0 54 C0 36.18 0 18.36 0 0 Z " fill="#14235E" transform="translate(612,35)"/>
<path d="M0 0 C3.3 0 6.6 0 10 0 C10 18.15 10 36.3 10 55 C6.7 55 3.4 55 0 55 C0 36.85 0 18.7 0 0 Z " fill="#14235E" transform="translate(646,352)"/>
<path d="M0 0 C3.3 0 6.6 0 10 0 C10 17.82 10 35.64 10 54 C6.7 54 3.4 54 0 54 C0 36.18 0 18.36 0 0 Z " fill="#14235E" transform="translate(927,35)"/>
<path d="M0 0 C2.02616566 0.17589037 4.05088368 0.38802629 6.0625 0.6875 C4.65814895 2.3316183 3.25056459 3.97306857 1.828125 5.6015625 C0.64727687 6.9966353 -0.48896434 8.43066385 -1.578125 9.8984375 C-5.78628235 15.34544492 -5.78628235 15.34544492 -9.3828125 16.4140625 C-11.59841455 16.65715363 -13.71173145 16.76825351 -15.9375 16.6875 C-9.47656492 -0.06193833 -9.47656492 -0.06193833 0 0 Z " fill="#14235E" transform="translate(559.9375,330.3125)"/>
<path d="M0 0 C3.63 0 7.26 0 11 0 C11 3.63 11 7.26 11 11 C7.37 11 3.74 11 0 11 C0 7.37 0 3.74 0 0 Z " fill="#14235E" transform="translate(612,16)"/>
<path d="M0 0 C3.3 0 6.6 0 10 0 C10 3.96 10 7.92 10 12 C6.7 12 3.4 12 0 12 C0 8.04 0 4.08 0 0 Z " fill="#14235E" transform="translate(646,332)"/>
<path d="M0 0 C3.3 0 6.6 0 10 0 C10 3.63 10 7.26 10 11 C6.7 11 3.4 11 0 11 C0 7.37 0 3.74 0 0 Z " fill="#14235E" transform="translate(927,16)"/>
</svg>
